<svg width="132" height="62" viewBox="0 0 132 62" fill="none" xmlns="http://www.w3.org/2000/svg">
<path fill-rule="evenodd" clip-rule="evenodd" d="M6.69219 59.3693C7.96689 60.5165 9.56027 61.0901 11.4723 61.0901C13.5756 61.0901 15.3283 60.4528 16.7305 59.1781C18.1964 57.8396 19.4392 56.2463 20.459 54.3979C21.4787 52.5496 22.3392 50.7969 23.0402 49.1398C25.0798 44.7421 26.9281 40.7268 28.5852 37.0939C30.2423 33.3972 32.0588 29.5731 34.0346 25.6215C34.4807 24.7292 34.9269 24.2831 35.373 24.2831C35.7554 24.2831 36.0741 24.5699 36.329 25.1435C36.6477 25.6534 36.8708 26.1951 36.9982 26.7688C38.2092 31.5489 39.6114 36.0741 41.2048 40.3443C42.7981 44.5509 44.2959 48.5343 45.6981 52.2947C46.4629 54.2067 47.3871 55.7364 48.4706 56.8836C49.5541 57.9671 51.0518 58.5089 52.9639 58.5089C54.4935 58.5089 55.8638 57.9671 57.0748 56.8836C58.3495 55.8001 59.4649 54.4298 60.4209 52.7727C61.3769 51.1156 62.1736 49.4585 62.811 47.8014C63.4483 46.0805 63.9582 44.6146 64.3406 43.4036L67.4817 32.5525V33.6112C67.5364 35.1955 67.591 36.5886 67.6456 37.7904C67.7002 38.9923 67.7822 40.2488 67.8915 41.5599C68.0007 42.6525 68.11 44.0456 68.2192 45.7391C68.3831 47.4327 68.629 49.2081 68.9567 51.0656C69.3391 52.8684 69.8581 54.5892 70.5137 56.2281C71.2239 57.8124 72.1253 59.1235 73.2179 60.1615C74.3105 61.1448 75.6762 61.6365 77.3151 61.6365C79.1179 61.6365 80.6203 61.0902 81.8221 59.9976C83.0786 58.8504 84.1439 57.4846 85.018 55.9003C85.8921 54.316 86.6296 52.8137 87.2305 51.3933C88.9787 47.6239 90.563 44.1822 91.9833 41.0682C93.4037 37.8997 94.9607 34.6219 96.6542 31.2348C97.0366 30.47 97.419 30.0876 97.8014 30.0876C98.1292 30.0876 98.4024 30.3334 98.6209 30.8251C98.894 31.2621 99.0853 31.7265 99.1945 32.2182C100.232 36.3154 101.434 40.1942 102.8 43.8544C104.166 47.46 105.45 50.8744 106.652 54.0975C107.307 55.7364 108.099 57.0476 109.028 58.0309C109.957 58.9596 111.24 59.424 112.879 59.424C114.19 59.424 115.365 58.9596 116.403 58.0309C117.496 57.1022 118.452 55.9276 119.271 54.5073C120.091 53.0869 120.773 51.6665 121.32 50.2461C121.866 48.7711 122.303 47.5146 122.631 46.4766L130.743 18.4514C130.853 18.069 131.044 17.3315 131.317 16.2389C131.59 15.0916 131.809 14.081 131.973 13.2069C132.082 12.4421 131.863 11.8138 131.317 11.3221C130.825 10.8305 130.088 10.5846 129.105 10.5846C127.957 10.5846 127.083 11.0217 126.482 11.8958C125.881 12.7152 125.417 13.7532 125.089 15.0097C123.614 20.8551 122.139 26.3181 120.664 31.3987C119.244 36.4793 117.414 41.7511 115.174 47.2141C115.01 47.5965 114.709 48.0882 114.272 48.6891C113.835 49.2354 113.344 49.5086 112.797 49.5086C112.524 49.5086 112.196 49.3993 111.814 49.1808C111.432 48.9623 110.967 48.3067 110.421 47.2141L102.964 25.4167C102.582 24.2149 102.063 23.2588 101.407 22.5486C100.806 21.7838 99.7954 21.4014 98.3751 21.4014C96.8454 21.4014 95.7528 21.7565 95.0973 22.4667C94.4417 23.1769 93.6222 24.2968 92.6389 25.8264C92.2565 26.3727 91.6009 27.52 90.6722 29.2681C89.7981 31.0163 88.7875 33.0922 87.6402 35.496C86.493 37.8451 85.3458 40.2215 84.1985 42.6252C83.0513 44.9743 82.0407 47.0502 81.1666 48.853C80.2925 50.6558 79.6916 51.885 79.3638 52.5406C79.1999 52.8137 78.9814 53.1142 78.7082 53.442C78.4897 53.7151 78.2165 53.8517 77.8888 53.8517C77.4517 53.8517 76.9874 53.4146 76.4957 52.5406C76.3864 52.322 76.2225 51.9123 76.004 51.3114C75.7855 50.7105 75.567 50.0822 75.3485 49.4267C75.1299 48.7165 74.9661 48.1975 74.8568 47.8697C74.5836 46.6678 74.3378 44.7558 74.1193 42.1335C73.9554 39.5113 73.8461 36.5886 73.7915 33.3654C73.7369 30.0876 73.7096 26.9464 73.7096 23.9417C73.7096 21.2648 73.7369 18.8611 73.7915 16.7305C73.8461 14.6 73.8735 13.043 73.8735 12.0597C73.8735 11.5821 73.8379 11.1756 73.7669 10.84L73.8053 10.7075C73.9328 10.2614 74.1558 9.40093 74.4745 8.12623C74.7932 6.78779 75.0481 5.60869 75.2393 4.58893C75.3668 3.69664 75.1119 2.96368 74.4745 2.39007C73.9009 1.81645 73.0405 1.52964 71.8932 1.52964C70.5548 1.52964 69.535 2.03952 68.8339 3.05929C68.1329 4.01531 67.5911 5.22628 67.2087 6.69219C65.4878 13.5118 63.767 19.8854 62.0462 25.8127C60.389 31.7401 58.2539 37.8905 55.6408 44.2641C55.4496 44.7102 55.099 45.2838 54.5891 45.9849C54.0793 46.6223 53.5056 46.9409 52.8683 46.9409C52.5496 46.9409 52.1672 46.8135 51.7211 46.5585C51.2749 46.3036 50.7332 45.5388 50.0958 44.2641L41.396 18.8337C40.9498 17.4316 40.3443 16.3162 39.5795 15.4876C38.8784 14.5953 37.6993 14.1492 36.0422 14.1492C34.2576 14.1492 32.9829 14.5635 32.2181 15.392C31.4533 16.2206 30.4973 17.5272 29.35 19.3117C28.9039 19.9491 28.1391 21.2875 27.0556 23.3271C26.0358 25.3666 24.8567 27.7885 23.5183 30.5929C22.1798 33.3335 20.8414 36.106 19.503 38.9103C18.1645 41.6509 16.9854 44.0728 15.9657 46.1761C14.9459 48.2794 14.2448 49.7134 13.8624 50.4782C13.6712 50.7969 13.4162 51.1474 13.0976 51.5299C12.8426 51.8485 12.524 52.0079 12.1415 52.0079C11.6317 52.0079 11.0899 51.498 10.5163 50.4782C10.3888 50.2233 10.1976 49.7453 9.94268 49.0442C9.68774 48.3431 9.4328 47.6102 9.17786 46.8453C8.92292 46.0168 8.73171 45.4113 8.60424 45.0289C8.28557 43.6267 7.99876 41.396 7.74382 38.3367C7.55261 35.2774 7.42514 31.8676 7.36141 28.1072C7.29767 24.2831 7.26581 20.6183 7.26581 17.1129C7.26581 13.9899 7.29767 11.1855 7.36141 8.69985C7.42514 6.21418 7.45701 4.39772 7.45701 3.25049C7.45701 1.78458 7.1702 0.89229 6.59659 0.573615C6.0867 0.191205 5.54496 0 4.97134 0C3.4417 0 2.32633 0.573617 1.62525 1.72085C0.92416 2.80435 0.478014 4.14278 0.286808 5.73616C0.0956028 7.2658 0 8.69985 0 10.0383V21.3194V28.394C0.063735 30.2423 0.127471 31.8676 0.191206 33.2697C0.254941 34.6719 0.350543 36.1378 0.478013 37.6675C0.605483 38.9422 0.732954 40.5674 0.860424 42.5432C1.05163 44.519 1.33844 46.5904 1.72085 48.7574C2.16699 50.8606 2.77248 52.8683 3.5373 54.7803C4.36586 56.6287 5.41749 58.1583 6.69219 59.3693Z" fill="#456CBF"/>
</svg>
